<svg width="5" height="9" viewBox="0 0 5 9" fill="none" xmlns="http://www.w3.org/2000/svg">
<path d="M0.640312 0.109982L4.39031 3.85998C4.42518 3.89481 4.45284 3.93617 4.47171 3.98169C4.49058 4.02722 4.50029 4.07601 4.50029 4.1253C4.50029 4.17458 4.49058 4.22337 4.47171 4.2689C4.45284 4.31442 4.42518 4.35578 4.39031 4.39061L0.640313 8.14061C0.587867 8.19311 0.521022 8.22888 0.44824 8.24337C0.375458 8.25786 0.300012 8.25044 0.231454 8.22203C0.162895 8.19362 0.104307 8.14551 0.063105 8.08379C0.0219034 8.02207 -5.82985e-05 7.94951 9.97705e-08 7.8753L-2.28065e-07 0.375295C-5.86328e-05 0.301084 0.0219031 0.228524 0.0631046 0.166801C0.104306 0.105078 0.162895 0.0569692 0.231453 0.0285621C0.300012 0.000154065 0.375458 -0.0072722 0.44824 0.00722174C0.521022 0.0217157 0.587867 0.0574775 0.640312 0.109982Z" fill="#696868"/>
</svg>
