<svg width="16" height="16" viewBox="0 0 16 16" fill="currentcolor" xmlns="http://www.w3.org/2000/svg">
<path d="M10.1466 3.14646L5.1466 8.14646C5.1001 8.19289 5.0632 8.24804 5.038 8.30874C5.0129 8.36943 4.9999 8.4345 4.9999 8.50021C4.9999 8.56591 5.0129 8.63098 5.038 8.69168C5.0632 8.75237 5.1001 8.80752 5.1466 8.85396L10.1465 13.854C10.2165 13.924 10.3056 13.9717 10.4026 13.991C10.4997 14.0103 10.6003 14.0004 10.6917 13.9625C10.7831 13.9247 10.8612 13.8605 10.9162 13.7782C10.9711 13.6959 11.0004 13.5992 11.0003 13.5002V3.50021C11.0004 3.40126 10.9711 3.30451 10.9162 3.22221C10.8612 3.13992 10.7831 3.07577 10.6917 3.03789C10.6003 3.00002 10.4997 2.99012 10.4026 3.00944C10.3056 3.02877 10.2165 3.07645 10.1466 3.14646Z" fill="currentcolor"/>
</svg>
